<?xml version="1.0" standalone="no"?>
<!DOCTYPE svg PUBLIC "-//W3C//DTD SVG 20010904//EN"
 "http://www.w3.org/TR/2001/REC-SVG-20010904/DTD/svg10.dtd">
<svg version="1.0" xmlns="http://www.w3.org/2000/svg"
 width="421.000000pt" height="421.000000pt" viewBox="0 0 421.000000 421.000000"
 preserveAspectRatio="xMidYMid meet">
<metadata>
Created by potrace 1.11, written by Peter Selinger 2001-2013
</metadata>
<g transform="translate(0.000000,421.000000) scale(0.100000,-0.100000)"
fill="#000000" stroke="none">
<path d="M1935 4118 c-77 -44 -142 -83 -144 -85 -4 -3 130 -204 209 -315 l27
-36 105 226 106 227 -56 32 c-32 18 -68 32 -82 33 -14 0 -88 -37 -165 -82z"/>
<path d="M2180 3859 l-113 -241 29 -41 c16 -23 142 -205 278 -405 137 -199
253 -359 258 -354 4 4 107 190 228 412 174 320 218 407 208 416 -11 10 -694
410 -754 442 -20 11 -27 -1 -134 -229z"/>
<path d="M1635 3944 c-49 -30 -372 -219 -717 -420 l-628 -366 0 -95 0 -94 441
-537 c242 -295 444 -538 448 -540 7 -2 811 1704 811 1721 0 7 -260 388 -263
386 -1 0 -42 -25 -92 -55z"/>
<path d="M2012 3636 c-8 -18 -7 -29 5 -46 l16 -23 14 26 c11 22 11 30 1 47
-16 26 -22 25 -36 -4z"/>
<path d="M2905 3178 c-126 -232 -230 -427 -230 -433 0 -11 906 -1338 910
-1333 1 2 75 136 164 300 l161 296 0 575 0 574 -380 222 c-209 121 -383 221
-387 221 -4 0 -111 -190 -238 -422z"/>
<path d="M1638 2702 c-218 -466 -400 -854 -403 -863 -4 -11 74 -113 254 -332
l260 -317 70 128 c482 881 771 1419 767 1428 -4 11 -532 784 -544 796 -4 4
-186 -374 -404 -840z"/>
<path d="M292 1956 l3 -909 194 -113 c107 -63 196 -113 197 -111 17 17 462
992 457 1000 -4 7 -120 149 -257 317 -138 168 -322 393 -410 500 -87 107 -165
202 -172 210 -12 12 -14 -127 -12 -894z"/>
<path d="M2612 2759 c-11 -18 -11 -24 4 -40 17 -19 17 -19 31 1 10 15 11 25 3
40 -14 25 -22 25 -38 -1z"/>
<path d="M2325 2112 c-170 -312 -359 -659 -421 -771 l-111 -204 365 -446 c201
-245 365 -447 366 -448 1 -1 568 329 602 352 19 12 417 727 417 750 0 7 -887
1309 -907 1332 -1 1 -141 -253 -311 -565z"/>
<path d="M1171 1843 c-10 -21 -9 -29 5 -44 30 -34 53 13 24 49 l-17 21 -12
-26z"/>
<path d="M3770 1617 c-74 -136 -136 -254 -138 -262 -3 -13 214 -335 226 -335
4 0 17 8 30 18 l22 17 -2 406 -3 405 -135 -249z"/>
<path d="M968 1273 l-227 -487 297 -172 c262 -153 298 -171 309 -157 7 9 92
162 189 341 153 283 175 328 165 345 -12 18 -416 512 -478 584 l-28 33 -227
-487z"/>
<path d="M3571 1371 c-12 -22 0 -61 19 -61 18 0 23 51 7 67 -13 14 -16 13 -26
-6z"/>
<path d="M3422 979 c-90 -165 -162 -302 -160 -303 1 -1 123 67 269 153 l266
155 -99 146 c-54 80 -102 146 -106 147 -4 2 -81 -133 -170 -298z"/>
<path d="M1735 1150 c-3 -10 -1 -29 6 -41 11 -22 12 -22 25 -4 17 23 18 37 2
53 -17 17 -26 15 -33 -8z"/>
<path d="M1719 1002 c-20 -37 -100 -185 -179 -330 -78 -145 -140 -265 -137
-268 3 -3 154 -93 337 -200 221 -129 342 -194 361 -194 16 0 61 19 101 44 40
24 117 69 170 100 l98 57 -158 192 c-87 106 -245 298 -351 427 -106 129 -196
236 -199 237 -4 2 -23 -28 -43 -65z"/>
</g>
</svg>
